<svg width="363" height="236" viewBox="0 0 363 236" fill="none" xmlns="http://www.w3.org/2000/svg">
<g clip-path="url(#clip0_19_76)">
<path d="M363 221.146C363 223.162 362.76 225.066 362.281 226.843C361.801 228.62 360.979 230.183 359.823 231.533C358.667 232.883 357.126 233.959 355.2 234.779C353.273 235.599 350.867 236.001 347.973 236.001H323.689C320.795 236.001 318.388 235.591 316.462 234.779C314.535 233.968 312.994 232.883 311.838 231.533C310.682 230.183 309.86 228.629 309.38 226.843C308.901 225.066 308.661 223.162 308.661 221.146V144.999C308.661 140.864 309.791 137.576 312.061 135.115C314.321 132.664 317.917 131.434 322.832 131.434H348.855C353.77 131.434 357.357 132.655 359.627 135.115C361.887 137.567 363.026 140.864 363.026 144.999V221.146H363ZM331.626 149.757C330.376 149.757 329.751 150.432 329.751 151.773V215.516C329.751 216.285 329.871 216.84 330.111 217.173C330.351 217.515 330.907 217.677 331.772 217.677H339.727C340.592 217.677 341.148 217.506 341.388 217.173C341.628 216.84 341.748 216.285 341.748 215.516V151.773C341.748 150.432 341.122 149.757 339.864 149.757H331.626Z" fill="white"/>
<path d="M299.679 193.46C299.679 195.767 298.883 197.885 297.29 199.807C295.697 201.729 293.36 202.695 290.277 202.695L301.263 236.01H279.574L269.452 202.695H266.704V236.01H245.742V131.451H285.499C290.414 131.451 294.002 132.673 296.271 135.133C298.531 137.585 299.67 140.882 299.67 145.016V193.477L299.679 193.46ZM266.721 149.757V185.815H276.988C278.332 185.815 279.008 185.097 279.008 183.654V151.927C279.008 150.484 278.332 149.766 276.988 149.766H266.721V149.757Z" fill="white"/>
<path d="M237.085 221.146C237.085 223.162 236.845 225.066 236.366 226.843C235.886 228.62 235.064 230.183 233.908 231.533C232.752 232.883 231.211 233.959 229.285 234.779C227.358 235.599 224.952 236.001 222.058 236.001H197.774C194.879 236.001 192.473 235.591 190.547 234.779C188.62 233.968 187.079 232.883 185.923 231.533C184.767 230.183 183.945 228.629 183.465 226.843C182.986 225.066 182.746 223.162 182.746 221.146V144.999C182.746 140.864 183.876 137.576 186.146 135.115C188.406 132.664 192.002 131.434 196.917 131.434H222.94C227.855 131.434 231.442 132.655 233.711 135.115C235.972 137.567 237.111 140.864 237.111 144.999V221.146H237.085ZM205.711 149.757C204.461 149.757 203.836 150.432 203.836 151.773V215.516C203.836 216.285 203.956 216.84 204.196 217.173C204.436 217.515 204.992 217.677 205.857 217.677H213.812C214.677 217.677 215.233 217.506 215.473 217.173C215.713 216.84 215.833 216.285 215.833 215.516V151.773C215.833 150.432 215.207 149.757 213.949 149.757H205.711Z" fill="white"/>
<path d="M171.743 131.441L176.949 150.909H162.923V236H141.525V150.909H127.508L132.997 131.441H171.743Z" fill="white"/>
<path d="M95.9882 223.024L94.113 236H73.0059L91.9466 131.441H114.355L133.296 236H112.189L110.314 223.024H96.0054H95.9882ZM98.3002 206.435H107.985L103.215 169.37L98.3002 206.435Z" fill="white"/>
<path d="M20.3879 186.676V236H0V131.441H22.1175L33.5402 175.571L44.9629 131.441H67.226V236H46.8382V186.676L33.5402 228.5L20.3879 186.676Z" fill="white"/>
<path d="M246.667 10.5413L274.316 0L253.021 27.2587C249.681 31.3419 244.689 33.7167 239.491 33.7338L225.294 33.768V62.7522L203.185 91.0531V47.4699H196.455V99.6638L181.505 118.807L166.554 99.6638V47.4699H159.824V91.0531L137.715 62.7522V33.768L123.518 33.7338C118.32 33.7167 113.328 31.3419 109.989 27.2587L88.6846 0L116.334 10.5413H246.667Z" fill="white"/>
</g>
<defs>
<clipPath id="clip0_19_76">
<rect width="363" height="236" fill="white"/>
</clipPath>
</defs>
</svg>
